<?xml version="1.0" encoding="utf-8"?>
<!-- Generator: Adobe Illustrator 27.2.0, SVG Export Plug-In . SVG Version: 6.00 Build 0)  -->
<svg width="25px" height="18px" version="1.1"
	xmlns="http://www.w3.org/2000/svg"
	xmlns:xlink="http://www.w3.org/1999/xlink" x="0px" y="0px" viewBox="0 0 595.3 572.1" xml:space="preserve">
	<g id="Oldtimerreifen">
		<path style="fill: #fff" d="M95,328.5c1.9,10.3,4.6,20.4,8,30.1
			l-34.1,33c7.3,16.4,16.2,31.8,26.7,46.2l45.7-13.1c6.8,7.9,14.1,15.2,22,22l-13.1,45.7c14.3,10.5,29.8,19.4,46.2,26.7l33-34.1
			c9.7,3.4,19.8,6.1,30.1,8L271,539c8.8,0.9,17.7,1.4,26.7,1.4c9,0,17.9-0.5,26.7-1.4l11.5-46.1c10.3-1.9,20.4-4.6,30.1-8l33,34.1
			c16.4-7.3,31.8-16.2,46.2-26.7L432,446.7c7.9-6.8,15.2-14.1,22-22l45.7,13.1c10.5-14.3,19.4-29.8,26.7-46.2l-34.1-33
			c3.4-9.7,6.1-19.8,8-30.1l46.1-11.5c0.9-8.8,1.4-17.7,1.4-26.7c0-9-0.5-17.9-1.4-26.7l-46.1-11.5c-1.9-10.3-4.6-20.4-8-30.1
			l34.1-33c-7.3-16.4-16.2-31.8-26.7-46.2L454,155.9c-6.8-7.9-14.1-15.2-22-22l13.1-45.7c-14.3-10.5-29.8-19.4-46.2-26.7l-33,34.2
			c-9.7-3.4-19.8-6.1-30.1-8l-11.5-46.1c-8.8-0.9-17.7-1.4-26.7-1.4c-9,0-17.9,0.5-26.7,1.4l-11.5,46.1c-10.3,1.9-20.4,4.6-30.1,8
			l-33-34.2c-16.4,7.3-31.8,16.2-46.2,26.7l13.1,45.7c-7.9,6.8-15.2,14.1-22,22l-45.7-13.1c-10.5,14.3-19.4,29.8-26.7,46.2l34.2,33
			c-3.4,9.7-6.1,19.7-8,30.1l-46.1,11.5c-0.9,8.8-1.4,17.7-1.4,26.7c0,9,0.5,17.9,1.4,26.7L95,328.5z M107,290.3
			C107,185,192.4,99.7,297.6,99.7c105.3,0,190.6,85.3,190.6,190.6c0,105.3-85.3,190.6-190.6,190.6C192.4,480.9,107,395.5,107,290.3z
			"/>

		<path style="fill:#fff" d="M125.6,290.3c0,95,77,172,172,172
			c95,0,172-77,172-172c0-95-77-172-172-172C202.6,118.3,125.6,195.3,125.6,290.3z M132.4,290.3c0-91.1,74.1-165.2,165.2-165.2
			c91.1,0,165.2,74.1,165.2,165.2c0,91.1-74.1,165.2-165.2,165.2C206.6,455.5,132.4,381.4,132.4,290.3z"/>
	</g>
</svg>
